# xmcd
#
# Track frame offsets:
#	151
#	9643
#	19998
#	31005
#	46235
#	57205
#	67786
#	82643
#	90207
#	101854
#	112097
#	126412
#	139349
#	149537
#	159456
#	174211
#	185596
#	203858
#	220173
#	236050
#	247051
#	256778
#	268652
#	280594
#	293199
#
# Disc length: 4089 seconds
#
# Revision: 0
# Processed by: cddbd v1.5.1PL0 Copyright (c) Steve Scherf et al.
# Submitted via: dBpowerAMP V4.0
#
DISCID=630ff719
DTITLE=Various Artist - Country Greats Volume 2
DYEAR=1900
DGENRE=
TTITLE0=Rawhide -- Frankie Lane
TTITLE1=Burning Memories -- Waylon Jennings
TTITLE2=Heaven's Just A Sin Away -- Lynn Anderson
TTITLE3=Conditions ( Just Dropped In ) -- Kenny Rogers
TTITLE4=Touch Me -- Willie Nelson
TTITLE5=Honky Tonk Merry Go Round -- Patsy Cline
TTITLE6=Mocking Bird Hill -- Slim Whitman
TTITLE7=Ragged But Right -- George Jones
TTITLE8=Cheatin' Is -- Barbara Fairchild
TTITLE9=White Lightning -- Waylon Jennings
TTITLE10=Two Doors Down -- Lynn Anderson
TTITLE11=Dallas -- Billie Jo Spears
TTITLE12=Three Cigarettes In An Ashtray -- Patsy Cline
TTITLE13=I Didn't Sleep A Wink -- Willie Nelson
TTITLE14=Both Sides Now -- Ann Murray
TTITLE15=Mule Train -- Frankie Lane
TTITLE16=Something's Burning -- Kenny Rogers
TTITLE17=Devil Went Down To Georgia -- Lynn Anderson
TTITLE18=Down In The Valley -- Slim Whitman
TTITLE19=Don't You Ever Get Tired Of Hurting Me -- Micky Gilley
TTITLE20=Fraulin -- Mickey Gilley
TTITLE21=Making Believe -- Dolly Parton
TTITLE22=Me And Bobby McGee -- Kenny Rogers
TTITLE23=The Cheating Kind -- Billie Jo Spears
TTITLE24=Moonlight Gambler -- Frankie Lane
EXTD=Bob Dunham
EXTT0=
EXTT1=
EXTT2=
EXTT3=
EXTT4=
EXTT5=
EXTT6=
EXTT7=
EXTT8=
EXTT9=
EXTT10=
EXTT11=
EXTT12=
EXTT13=
EXTT14=
EXTT15=
EXTT16=
EXTT17=
EXTT18=
EXTT19=
EXTT20=
EXTT21=
EXTT22=
EXTT23=
EXTT24=
PLAYORDER=
